Coordinates
version=1
nRows=13
nColumns=63
inDegrees=yes

Units are S.I. units (second, meters, Newtons, ...)
If the header above contains a line with 'inDegrees', this indicates whether rotational values are in degrees (yes) or radians (no).

endheader
time	pelvis_tilt	pelvis_list	pelvis_rotation	pelvis_tx	pelvis_ty	pelvis_tz	hip_flexion_r	hip_adduction_r	hip_rotation_r	knee_angle_r	knee_angle_r_beta	ankle_angle_r	subtalar_angle_r	mtp_angle_r	hip_flexion_l	hip_adduction_l	hip_rotation_l	knee_angle_l	knee_angle_l_beta	ankle_angle_l	subtalar_angle_l	mtp_angle_l	L5_S1_Flex_Ext	L5_S1_Lat_Bending	L5_S1_axial_rotation	L4_L5_Flex_Ext	L4_L5_Lat_Bending	L4_L5_axial_rotation	L3_L4_Flex_Ext	L3_L4_Lat_Bending	L3_L4_axial_rotation	L2_L3_Flex_Ext	L2_L3_Lat_Bending	L2_L3_axial_rotation	L1_L2_Flex_Ext	L1_L2_Lat_Bending	L1_L2_axial_rotation	L1_T12_Flex_Ext	L1_T12_Lat_Bending	L1_T12_axial_rotation	Abs_r3	Abs_r2	Abs_r1	Abs_t1	Abs_t2	neck_flexion	neck_bending	neck_rotation	arm_flex_r	arm_add_r	arm_rot_r	elbow_flex_r	pro_sup_r	wrist_flex_r	wrist_dev_r	arm_flex_l	arm_add_l	arm_rot_l	elbow_flex_l	pro_sup_l	wrist_flex_l	wrist_dev_l
3.708333	5.847942	-1.387273	100.776097	0.182912	1.038482	0.516605	2.284121	3.418353	-16.436003	7.742376	0.135130	28.008500	14.734168	0.000000	4.359777	-4.917826	12.470815	5.276265	0.092088	26.019431	-3.754511	0.000000	0.057384	0.963441	-1.227613	0.106568	1.281376	-1.304338	0.094276	2.342510	-1.304338	0.065584	2.342510	-1.074161	0.053287	1.964649	-0.997435	0.032789	1.492370	-0.920709	0.409887	10.898636	-6.827613	0.000000	0.000000	19.741628	-4.083056	8.120506	12.663493	-23.210242	24.673617	20.523051	82.790837	-12.534923	1.839724	13.836050	-9.609728	130.884101	4.463894	6.137021	-2.049002	-9.631616
3.729167	5.753296	-1.638741	100.603792	0.183489	1.038596	0.518410	2.871147	3.196012	-16.781852	8.257899	0.144128	28.060901	15.021206	0.000000	4.655582	-4.771907	12.802733	5.302815	0.092552	25.459571	-4.476670	0.000000	0.070292	0.939655	-1.176873	0.130540	1.249742	-1.250427	0.115483	2.284678	-1.250427	0.080337	2.284678	-1.029764	0.065274	1.916145	-0.956209	0.040165	1.455526	-0.882655	0.502092	10.629570	-6.545413	0.000000	0.000000	19.942093	-3.911814	7.596189	13.547308	-22.704685	25.376943	20.930635	82.772412	-12.840573	2.010810	14.877895	-9.718586	131.197219	4.970222	7.307287	-2.231266	-8.397219
3.750000	5.642662	-1.862250	100.415526	0.184042	1.038852	0.520080	3.411039	2.971212	-17.112420	8.738416	0.152514	28.140835	15.364129	0.000000	4.868999	-4.625384	13.189108	5.208267	0.090901	24.888092	-5.242084	0.000000	0.081005	0.914617	-1.123478	0.150434	1.216441	-1.193695	0.133083	2.223801	-1.193695	0.092580	2.223801	-0.983043	0.075221	1.865088	-0.912826	0.046286	1.416742	-0.842609	0.578609	10.346335	-6.248448	0.000000	0.000000	20.072657	-3.743318	7.064028	14.315454	-22.097906	25.825333	21.680293	82.815304	-12.885628	2.142686	15.967623	-9.751950	131.222960	5.511689	8.295394	-2.508863	-7.355706
3.770833	5.527097	-2.053640	100.212684	0.184514	1.039229	0.521546	3.890353	2.758708	-17.365223	9.161354	0.159896	28.252607	15.707179	0.000000	4.995132	-4.487548	13.670342	4.992130	0.087129	24.337904	-6.089336	0.000000	0.091147	0.890700	-1.065824	0.169269	1.184631	-1.132438	0.149745	2.165648	-1.132438	0.104172	2.165648	-0.932596	0.084639	1.816315	-0.865982	0.052081	1.379694	-0.799368	0.651053	10.075775	-5.927792	0.000000	0.000000	20.124995	-3.623576	6.514218	14.986638	-21.413690	26.092035	22.754260	82.887792	-12.716316	2.210722	17.084541	-9.675468	131.061909	6.042596	9.143100	-2.790139	-6.510093
3.791667	5.405932	-2.204802	99.987632	0.184906	1.039708	0.522712	4.285972	2.561098	-17.538908	9.504720	0.165889	28.412964	16.081532	0.000000	5.025651	-4.359368	14.216857	4.667683	0.081466	23.848416	-6.975472	0.000000	0.101078	0.867863	-1.001452	0.187711	1.154258	-1.064042	0.166060	2.110122	-1.064042	0.115521	2.110122	-0.876270	0.093861	1.769746	-0.813679	0.057756	1.344320	-0.751089	0.721987	9.817439	-5.569773	0.000000	0.000000	20.110924	-3.569562	5.918284	15.562209	-20.659764	26.207209	24.117539	83.027947	-12.430461	2.150451	18.192638	-9.460452	131.034298	6.464518	9.806661	-2.904991	-5.773380
3.812500	5.275870	-2.306365	99.724011	0.185275	1.040267	0.523568	4.582637	2.378990	-17.608249	9.758606	0.170320	28.633308	16.482092	0.000000	4.950645	-4.241757	14.825019	4.237657	0.073961	23.453955	-7.871074	0.000000	0.109020	0.845230	-0.928632	0.202461	1.124155	-0.986672	0.179109	2.055091	-0.986672	0.124599	2.055091	-0.812553	0.101236	1.723592	-0.754514	0.062294	1.309261	-0.696474	0.778721	9.561405	-5.164774	0.000000	0.000000	20.055757	-3.569117	5.272175	16.057988	-19.839478	26.228604	25.704860	83.241359	-12.086210	1.961999	19.276679	-9.116580	131.156392	6.792560	10.315095	-2.708861	-5.115076
3.833333	5.125216	-2.358532	99.441082	0.185606	1.040878	0.524145	4.774998	2.202856	-17.515516	9.917422	0.173092	28.901980	16.802974	0.000000	4.794318	-4.116604	15.419039	3.744311	0.065351	23.178295	-8.697087	0.000000	0.114165	0.821712	-0.854794	0.212015	1.092877	-0.908219	0.187561	1.997910	-0.908219	0.130479	1.997910	-0.747945	0.106013	1.675635	-0.694520	0.065234	1.272832	-0.641096	0.815466	9.295370	-4.754108	0.000000	0.000000	19.981396	-3.584286	4.647390	16.493812	-18.982635	26.327904	27.454204	83.561093	-11.744529	1.676660	20.305086	-8.631241	131.852477	6.947884	10.617343	-2.144307	-4.486039
3.854167	4.950026	-2.366749	99.131392	0.185949	1.041513	0.524505	4.876493	2.023882	-17.305483	10.002750	0.174581	29.209934	17.080111	0.000000	4.574665	-3.978231	15.996545	3.213820	0.056092	23.030529	-9.461531	0.000000	0.116301	0.796474	-0.776063	0.215982	1.059310	-0.824566	0.191071	1.936546	-0.824566	0.132920	1.936546	-0.679055	0.107997	1.624169	-0.630551	0.066454	1.233738	-0.582047	0.830725	9.009870	-4.316227	0.000000	0.000000	19.910002	-3.587050	4.059172	16.864143	-18.091543	26.505177	29.300377	84.016865	-11.418561	1.383462	21.258198	-8.008553	133.030152	6.940230	10.712625	-1.181626	-3.929626
3.875000	4.796959	-2.312044	98.793075	0.186228	1.042243	0.524762	4.874722	1.885638	-17.025210	10.009355	0.174696	29.478997	17.352582	0.000000	4.296829	-3.872963	16.416952	2.682358	0.046816	23.037064	-9.977416	0.000000	0.115134	0.775372	-0.668808	0.213816	1.031245	-0.710609	0.189154	1.885240	-0.710609	0.131587	1.885240	-0.585207	0.106914	1.581139	-0.543407	0.065788	1.201052	-0.501606	0.822394	8.771167	-3.719711	0.000000	0.000000	19.777550	-3.585488	3.379411	17.130294	-17.259154	26.765116	31.201936	84.504550	-11.107179	1.100083	22.675759	-6.666513	139.967775	5.069759	6.711746	1.228286	-4.939694
3.895833	4.620483	-2.227565	98.453376	0.186653	1.042929	0.524841	4.798663	1.749710	-16.664935	9.947100	0.173610	29.734721	17.574569	0.000000	3.994921	-3.759310	16.752239	2.172646	0.037920	23.153796	-10.329786	0.000000	0.112385	0.750933	-0.562245	0.208710	0.998740	-0.597386	0.184637	1.825817	-0.597386	0.128445	1.825817	-0.491965	0.104361	1.531302	-0.456824	0.064217	1.163195	-0.421684	0.802754	8.494699	-3.127039	0.000000	0.000000	19.664407	-3.512960	2.819857	17.341325	-16.375383	27.230469	33.068041	85.045564	-10.713393	0.927628	23.744409	-5.493132	144.103193	3.866091	4.617266	3.510632	-5.720351
3.916667	4.433006	-2.109653	98.120843	0.187221	1.043592	0.524754	4.648373	1.629273	-16.238312	9.817988	0.171356	29.941024	17.733195	0.000000	3.670376	-3.647729	17.001301	1.701665	0.029700	23.346580	-10.550336	0.000000	0.107596	0.724316	-0.457893	0.199817	0.963340	-0.486512	0.176770	1.761102	-0.486512	0.122972	1.761102	-0.400657	0.099914	1.477026	-0.372038	0.061481	1.121966	-0.343420	0.768551	8.193609	-2.546665	0.000000	0.000000	19.550326	-3.387403	2.344845	17.513975	-15.456738	27.960183	34.849407	85.605805	-10.127312	0.874659	24.431684	-4.469132	145.509709	3.347897	4.101481	5.630325	-6.492390
3.937500	4.255639	-1.964251	97.817787	0.187908	1.044241	0.524516	4.431346	1.545881	-15.756950	9.619422	0.167891	30.084213	17.809550	0.000000	3.344137	-3.557803	17.089687	1.301196	0.022710	23.617139	-10.542188	0.000000	0.101156	0.698404	-0.362043	0.187858	0.928877	-0.384671	0.166190	1.698099	-0.384671	0.115612	1.698099	-0.316788	0.093934	1.424185	-0.294160	0.057801	1.081828	-0.271533	0.722550	7.900484	-2.013577	0.000000	0.000000	19.429651	-3.215596	2.006605	17.650810	-14.512535	28.926868	36.524448	86.174056	-9.209246	0.970872	24.722397	-3.611451	144.415715	3.593472	4.896906	7.344868	-7.363116
3.958333	4.102141	-1.805989	97.539318	0.188738	1.044873	0.524141	4.169295	1.509271	-15.236692	9.361527	0.163389	30.165554	17.821889	0.000000	3.035904	-3.500003	17.016292	0.994356	0.017355	23.938179	-10.357292	0.000000	0.095346	0.674297	-0.276082	0.177067	0.896816	-0.293337	0.156644	1.639487	-0.293337	0.108971	1.639487	-0.241572	0.088538	1.375027	-0.224317	0.054481	1.044487	-0.207062	0.681047	7.627788	-1.535485	0.000000	0.000000	19.280176	-3.018581	1.776482	17.769678	-13.572834	30.211143	38.085413	86.754295	-8.021277	1.153796	24.616310	-2.940388	141.048915	4.595205	6.783009	8.642225	-8.438621
